<svg width="60" height="60" viewBox="0 0 60 60" fill="none" xmlns="http://www.w3.org/2000/svg">
<rect x="3" y="3" width="54" height="54" rx="27" fill="url(#paint0_radial_8576_628)"/>
<rect x="1.5" y="1.5" width="57" height="57" rx="28.5" stroke="black" stroke-opacity="0.2" stroke-width="3"/>
<g opacity="0.4" filter="url(#filter0_f_8576_628)">
<ellipse cx="15.3422" cy="19.9032" rx="5.81622" ry="9.33388" transform="rotate(-39.2803 15.3422 19.9032)" fill="white"/>
</g>
<g opacity="0.4" filter="url(#filter1_f_8576_628)">
<ellipse cx="5.81622" cy="11.6516" rx="5.81622" ry="11.6516" transform="matrix(-0.774058 -0.633114 -0.633114 0.774058 50.7573 12.8906)" fill="white"/>
</g>
<rect x="8.5" y="8.5" width="43" height="43" rx="21.5" fill="url(#paint1_linear_8576_628)" stroke="url(#paint2_linear_8576_628)"/>
<path d="M31.2015 30.7547C31.592 30.3642 31.592 29.731 31.2015 29.3405L25.1737 23.3127C24.5539 22.6929 24.5539 21.688 25.1737 21.0682C25.7934 20.4484 26.7983 20.4484 27.4181 21.0682L34.9832 28.6334C35.7643 29.4144 35.7643 30.6807 34.9832 31.4618L27.4181 39.0269C26.7983 39.6467 25.7934 39.6467 25.1737 39.0269C24.5539 38.4072 24.5539 37.4023 25.1737 36.7825L31.2015 30.7547Z" fill="white"/>
<defs>
<filter id="filter0_f_8576_628" x="2.9126" y="6.79224" width="24.8589" height="26.2219" filterUnits="userSpaceOnUse" color-interpolation-filters="sRGB">
<feFlood flood-opacity="0" result="BackgroundImageFix"/>
<feBlend mode="normal" in="SourceGraphic" in2="BackgroundImageFix" result="shape"/>
<feGaussianBlur stdDeviation="2" result="effect1_foregroundBlur_8576_628"/>
</filter>
<filter id="filter1_f_8576_628" x="25.2354" y="3.48291" width="27.2866" height="29.4886" filterUnits="userSpaceOnUse" color-interpolation-filters="sRGB">
<feFlood flood-opacity="0" result="BackgroundImageFix"/>
<feBlend mode="normal" in="SourceGraphic" in2="BackgroundImageFix" result="shape"/>
<feGaussianBlur stdDeviation="2" result="effect1_foregroundBlur_8576_628"/>
</filter>
<radialGradient id="paint0_radial_8576_628" cx="0" cy="0" r="1" gradientTransform="matrix(27.1915 109 -29.4894 50.156 32.4894 30)" gradientUnits="userSpaceOnUse">
<stop stop-color="#294C32"/>
<stop offset="1" stop-color="#67DF89"/>
</radialGradient>
<linearGradient id="paint1_linear_8576_628" x1="30" y1="8" x2="30" y2="52" gradientUnits="userSpaceOnUse">
<stop stop-color="#294C32"/>
<stop offset="1" stop-color="#67DF89"/>
</linearGradient>
<linearGradient id="paint2_linear_8576_628" x1="8" y1="30" x2="52" y2="30" gradientUnits="userSpaceOnUse">
<stop stop-color="#52B7E0" stop-opacity="0.7"/>
<stop offset="1" stop-color="#446C96" stop-opacity="0.3"/>
</linearGradient>
</defs>
</svg>
