<svg width="146" height="61" viewBox="0 0 146 61" fill="none" xmlns="http://www.w3.org/2000/svg">
<rect x="3" y="4" width="140" height="54" rx="10" fill="url(#paint0_radial_8576_718)"/>
<rect x="1.5" y="2.5" width="143" height="57" rx="11.5" stroke="black" stroke-opacity="0.2" stroke-width="3"/>
<g opacity="0.4" filter="url(#filter0_f_8576_718)">
<ellipse cx="14.3769" cy="17.0875" rx="5.81622" ry="10.8587" transform="rotate(-39.2803 14.3769 17.0875)" fill="white"/>
</g>
<g opacity="0.4" filter="url(#filter1_f_8576_718)">
<ellipse cx="5.81622" cy="11.5808" rx="5.81622" ry="11.5808" transform="matrix(-0.774058 -0.633114 -0.633114 0.774058 143.668 10.3646)" fill="white"/>
</g>
<rect x="8.5" y="9.5" width="129" height="43" rx="4.5" fill="url(#paint1_linear_8576_718)" stroke="url(#paint2_linear_8576_718)"/>
<path d="M39.1224 36L34.9624 31.024L33.8104 32.272V36H32.3384V24.8H33.8104V30.096L38.8024 24.8H40.7064L35.9544 29.936L40.9624 35.984L39.1224 36ZM48.9788 36H47.6028V31.216C47.6028 30.7787 47.5334 30.4213 47.3948 30.144C47.2561 29.8667 47.0801 29.648 46.8668 29.488C46.6641 29.3173 46.4348 29.2 46.1788 29.136C45.9228 29.072 45.6828 29.04 45.4588 29.04C45.2348 29.04 44.9948 29.0773 44.7388 29.152C44.4934 29.2267 44.2694 29.36 44.0668 29.552C43.8641 29.744 43.6934 30 43.5548 30.32C43.4268 30.64 43.3628 31.0453 43.3628 31.536V36H41.9868V28H43.3628V28.944C43.6294 28.6347 43.9654 28.368 44.3708 28.144C44.7761 27.92 45.2294 27.808 45.7308 27.808C46.0188 27.808 46.3494 27.856 46.7228 27.952C47.0961 28.0373 47.4481 28.208 47.7788 28.464C48.1201 28.7093 48.4028 29.056 48.6268 29.504C48.8614 29.9413 48.9788 30.512 48.9788 31.216V36ZM54.6899 36.192C54.1139 36.192 53.5699 36.0853 53.0579 35.872C52.5459 35.648 52.0979 35.3493 51.7139 34.976C51.3405 34.592 51.0419 34.144 50.8179 33.632C50.6045 33.12 50.4979 32.576 50.4979 32C50.4979 31.424 50.6045 30.8853 50.8179 30.384C51.0419 29.872 51.3405 29.4293 51.7139 29.056C52.0979 28.672 52.5459 28.3733 53.0579 28.16C53.5699 27.936 54.1139 27.824 54.6899 27.824C55.2659 27.824 55.8045 27.936 56.3059 28.16C56.8179 28.3733 57.2605 28.672 57.6339 29.056C58.0179 29.4293 58.3165 29.872 58.5299 30.384C58.7539 30.8853 58.8659 31.424 58.8659 32C58.8659 32.576 58.7539 33.12 58.5299 33.632C58.3165 34.144 58.0179 34.592 57.6339 34.976C57.2605 35.3493 56.8179 35.648 56.3059 35.872C55.8045 36.0853 55.2659 36.192 54.6899 36.192ZM54.6739 34.816C55.0579 34.816 55.4205 34.7413 55.7619 34.592C56.1032 34.4427 56.4019 34.24 56.6579 33.984C56.9139 33.728 57.1165 33.4293 57.2659 33.088C57.4152 32.7467 57.4899 32.384 57.4899 32C57.4899 31.616 57.4152 31.2533 57.2659 30.912C57.1165 30.5707 56.9139 30.272 56.6579 30.016C56.4019 29.76 56.1032 29.5627 55.7619 29.424C55.4205 29.2747 55.0579 29.2 54.6739 29.2C54.2899 29.2 53.9272 29.2747 53.5859 29.424C53.2445 29.5627 52.9459 29.76 52.6899 30.016C52.4339 30.272 52.2312 30.5707 52.0819 30.912C51.9325 31.2533 51.8579 31.616 51.8579 32C51.8579 32.384 51.9325 32.7467 52.0819 33.088C52.2312 33.4293 52.4339 33.728 52.6899 33.984C52.9459 34.24 53.2445 34.4427 53.5859 34.592C53.9272 34.7413 54.2899 34.816 54.6739 34.816ZM59.6329 28H61.0729L62.8329 33.888L64.6089 28H66.0969L67.9209 33.888L69.7609 28H71.2169L68.6249 36H67.2169L65.3609 30.208L63.5209 36H62.1289L59.6329 28ZM89.3403 36H87.9643V31.216C87.9643 30.7787 87.8949 30.4213 87.7563 30.144C87.6176 29.8667 87.4416 29.648 87.2283 29.488C87.0256 29.3173 86.7963 29.2 86.5403 29.136C86.2843 29.072 86.0443 29.04 85.8203 29.04C85.5963 29.04 85.3669 29.0773 85.1323 29.152C84.8976 29.2267 84.6789 29.36 84.4763 29.552C84.2843 29.744 84.1243 30 83.9963 30.32C83.8789 30.64 83.8203 31.0453 83.8203 31.536V36H82.4443V31.216C82.4443 30.7787 82.3749 30.4213 82.2363 30.144C82.0976 29.8667 81.9216 29.648 81.7083 29.488C81.5056 29.3173 81.2763 29.2 81.0203 29.136C80.7643 29.072 80.5243 29.04 80.3003 29.04C80.0763 29.04 79.8469 29.0773 79.6123 29.152C79.3776 29.2267 79.1589 29.36 78.9563 29.552C78.7643 29.744 78.6043 30 78.4763 30.32C78.3589 30.64 78.3003 31.0453 78.3003 31.536V36H76.9243V28H78.3003V28.896C78.5563 28.5867 78.8763 28.3307 79.2603 28.128C79.6549 27.9147 80.0976 27.808 80.5883 27.808C80.8016 27.808 81.0363 27.8347 81.2923 27.888C81.5589 27.9307 81.8256 28.016 82.0923 28.144C82.3589 28.2613 82.6096 28.4267 82.8443 28.64C83.0896 28.8427 83.2923 29.1093 83.4523 29.44C83.5589 29.2373 83.6976 29.04 83.8683 28.848C84.0389 28.6453 84.2363 28.4693 84.4603 28.32C84.6949 28.1707 84.9456 28.048 85.2123 27.952C85.4896 27.856 85.7883 27.808 86.1083 27.808C86.3963 27.808 86.7269 27.856 87.1003 27.952C87.4736 28.0373 87.8256 28.208 88.1563 28.464C88.4869 28.7093 88.7643 29.056 88.9883 29.504C89.2229 29.9413 89.3403 30.512 89.3403 31.216V36ZM95.0493 36.192C94.4733 36.192 93.9293 36.0853 93.4173 35.872C92.9053 35.648 92.4573 35.3493 92.0733 34.976C91.6999 34.592 91.4013 34.144 91.1773 33.632C90.9639 33.12 90.8573 32.576 90.8573 32C90.8573 31.424 90.9639 30.8853 91.1773 30.384C91.4013 29.872 91.6999 29.4293 92.0733 29.056C92.4573 28.672 92.9053 28.3733 93.4173 28.16C93.9293 27.936 94.4733 27.824 95.0493 27.824C95.6253 27.824 96.1639 27.936 96.6653 28.16C97.1773 28.3733 97.6199 28.672 97.9933 29.056C98.3773 29.4293 98.6759 29.872 98.8893 30.384C99.1133 30.8853 99.2253 31.424 99.2253 32C99.2253 32.576 99.1133 33.12 98.8893 33.632C98.6759 34.144 98.3773 34.592 97.9933 34.976C97.6199 35.3493 97.1773 35.648 96.6653 35.872C96.1639 36.0853 95.6253 36.192 95.0493 36.192ZM95.0333 34.816C95.4173 34.816 95.7799 34.7413 96.1213 34.592C96.4626 34.4427 96.7613 34.24 97.0173 33.984C97.2733 33.728 97.4759 33.4293 97.6253 33.088C97.7746 32.7467 97.8493 32.384 97.8493 32C97.8493 31.616 97.7746 31.2533 97.6253 30.912C97.4759 30.5707 97.2733 30.272 97.0173 30.016C96.7613 29.76 96.4626 29.5627 96.1213 29.424C95.7799 29.2747 95.4173 29.2 95.0333 29.2C94.6493 29.2 94.2866 29.2747 93.9453 29.424C93.6039 29.5627 93.3053 29.76 93.0493 30.016C92.7933 30.272 92.5906 30.5707 92.4413 30.912C92.2919 31.2533 92.2173 31.616 92.2173 32C92.2173 32.384 92.2919 32.7467 92.4413 33.088C92.5906 33.4293 92.7933 33.728 93.0493 33.984C93.3053 34.24 93.6039 34.4427 93.9453 34.592C94.2866 34.7413 94.6493 34.816 95.0333 34.816ZM104.863 29.328C104.81 29.3067 104.756 29.296 104.703 29.296C104.66 29.296 104.612 29.296 104.559 29.296C104.25 29.296 103.946 29.3387 103.647 29.424C103.359 29.5093 103.103 29.648 102.879 29.84C102.655 30.0213 102.474 30.2613 102.335 30.56C102.207 30.848 102.143 31.2 102.143 31.616V36H100.767V28H102.143V29.472C102.324 29.0773 102.628 28.736 103.055 28.448C103.482 28.1493 104.031 28 104.703 28C104.746 28 104.788 28 104.831 28C104.874 28 104.922 28.0053 104.975 28.016L104.863 29.328ZM109.768 27.808C110.365 27.808 110.909 27.92 111.4 28.144C111.89 28.368 112.312 28.672 112.664 29.056C113.016 29.44 113.288 29.888 113.48 30.4C113.672 30.912 113.768 31.4507 113.768 32.016C113.768 32.1227 113.762 32.2133 113.752 32.288C113.752 32.3627 113.741 32.448 113.72 32.544H106.984C107.026 32.8853 107.128 33.2053 107.288 33.504C107.448 33.792 107.65 34.048 107.896 34.272C108.152 34.4853 108.45 34.656 108.792 34.784C109.133 34.912 109.506 34.976 109.912 34.976C110.402 34.976 110.866 34.864 111.304 34.64C111.741 34.416 112.066 34.1387 112.28 33.808L113.368 34.448C113.016 34.992 112.541 35.4187 111.944 35.728C111.346 36.0373 110.658 36.192 109.88 36.192C109.24 36.192 108.653 36.0853 108.12 35.872C107.597 35.6587 107.149 35.3653 106.776 34.992C106.402 34.6187 106.109 34.176 105.896 33.664C105.693 33.152 105.592 32.5973 105.592 32C105.592 31.4027 105.693 30.8533 105.896 30.352C106.098 29.84 106.381 29.3973 106.744 29.024C107.117 28.64 107.56 28.3413 108.072 28.128C108.584 27.9147 109.149 27.808 109.768 27.808ZM112.456 31.424C112.36 30.6773 112.077 30.0907 111.608 29.664C111.138 29.2373 110.52 29.024 109.752 29.024C109.346 29.024 108.973 29.0933 108.632 29.232C108.29 29.36 107.997 29.536 107.752 29.76C107.506 29.984 107.314 30.24 107.176 30.528C107.037 30.816 106.968 31.1147 106.968 31.424H112.456Z" fill="white"/>
<defs>
<filter id="filter0_f_8576_718" x="1.1582" y="2.90869" width="26.4375" height="28.3577" filterUnits="userSpaceOnUse" color-interpolation-filters="sRGB">
<feFlood flood-opacity="0" result="BackgroundImageFix"/>
<feBlend mode="normal" in="SourceGraphic" in2="BackgroundImageFix" result="shape"/>
<feGaussianBlur stdDeviation="2" result="effect1_foregroundBlur_8576_718"/>
</filter>
<filter id="filter1_f_8576_718" x="118.229" y="0.952881" width="27.21" height="29.3873" filterUnits="userSpaceOnUse" color-interpolation-filters="sRGB">
<feFlood flood-opacity="0" result="BackgroundImageFix"/>
<feBlend mode="normal" in="SourceGraphic" in2="BackgroundImageFix" result="shape"/>
<feGaussianBlur stdDeviation="2" result="effect1_foregroundBlur_8576_718"/>
</filter>
<radialGradient id="paint0_radial_8576_718" cx="0" cy="0" r="1" gradientTransform="matrix(70.4965 109 -76.4539 50.156 79.4539 31)" gradientUnits="userSpaceOnUse">
<stop stop-color="#294C32"/>
<stop offset="1" stop-color="#67DF89"/>
</radialGradient>
<linearGradient id="paint1_linear_8576_718" x1="73" y1="9" x2="73" y2="53" gradientUnits="userSpaceOnUse">
<stop stop-color="#294C32"/>
<stop offset="1" stop-color="#67DF89"/>
</linearGradient>
<linearGradient id="paint2_linear_8576_718" x1="8" y1="31" x2="138" y2="31" gradientUnits="userSpaceOnUse">
<stop stop-color="#52B7E0" stop-opacity="0.7"/>
<stop offset="1" stop-color="#446C96" stop-opacity="0.3"/>
</linearGradient>
</defs>
</svg>
