<svg width="64" height="64" viewBox="0 0 64 64" fill="none" xmlns="http://www.w3.org/2000/svg">
<path d="M55.2601 24.4507H44.4538V12.9781C44.4538 9.5846 41.6929 6.82373 38.2994 6.82373H9.78231C6.38881 6.82373 3.62793 9.5846 3.62793 12.9781V34.3784C3.62793 37.7717 6.38881 40.5325 9.78231 40.5325H10.8992L10.9706 44.1876C10.9963 45.4945 11.5688 46.624 12.5412 47.2864C13.0581 47.6385 13.6297 47.814 14.2001 47.8137C14.8237 47.8137 15.4459 47.6041 15.9926 47.1871C18.6968 45.1254 22.3978 42.2665 24.2726 40.5325H27.7777V46.3504C27.7777 49.1692 30.0712 51.4627 32.8901 51.4627H43.7823C45.2892 52.8406 48.1299 55.0345 50.2156 56.6244C50.6972 56.9916 51.2449 57.1762 51.7944 57.1762C52.2967 57.1762 52.8003 57.0219 53.2557 56.7119C54.0958 56.1397 54.5903 55.1702 54.6127 54.0507L54.6634 51.4627H55.2602C58.0791 51.4627 60.3726 49.1692 60.3726 46.3504V29.563C60.3726 26.7441 58.0791 24.4506 55.2602 24.4506L55.2601 24.4507ZM23.7449 37.8907C23.3986 37.8907 23.0662 38.0269 22.8192 38.2695C21.0421 40.0154 16.0359 43.832 14.3904 45.0865C14.2354 45.2054 14.1638 45.1959 14.0286 45.1032C13.7723 44.9286 13.6203 44.5761 13.6117 44.1359L13.5149 39.1859C13.5007 38.4665 12.9136 37.8907 12.1943 37.8907H9.78218C7.84543 37.8907 6.26955 36.3151 6.26955 34.3784V12.9781C6.26955 11.0414 7.84543 9.46548 9.78218 9.46548H38.2993C40.2361 9.46548 41.8119 11.0414 41.8119 12.9781V34.3784C41.8119 36.3151 40.2361 37.8907 38.2993 37.8907H23.7449ZM57.7307 46.3505C57.7307 47.7129 56.6222 48.8211 55.2601 48.8211H53.3678C52.6484 48.8211 52.0613 49.3969 52.0472 50.1162L51.9716 53.9986C51.9673 54.216 51.9056 54.4002 51.7929 54.5051C48.3559 51.8846 46.1487 50.0999 45.2329 49.1999C44.9859 48.9572 44.6535 48.8212 44.3072 48.8211H32.8902C31.5278 48.8211 30.4196 47.7129 30.4196 46.3505V40.5326H38.2997C41.6932 40.5326 44.4541 37.7717 44.4541 34.3785V27.0926H55.2603C56.6224 27.0926 57.7309 28.2009 57.7309 29.5632V46.3506L57.7307 46.3505ZM19.7641 16.3116C19.7641 15.5821 20.3554 14.9907 21.0849 14.9907H35.6439C36.3734 14.9907 36.9648 15.5821 36.9648 16.3116C36.9648 17.0411 36.3734 17.6325 35.6439 17.6325H21.0849C20.3554 17.6325 19.7641 17.0411 19.7641 16.3116ZM11.1169 23.41C11.1169 22.6805 11.7083 22.0891 12.4378 22.0891H35.6439C36.3734 22.0891 36.9648 22.6805 36.9648 23.41C36.9648 24.1395 36.3734 24.7309 35.6439 24.7309H12.4378C11.7083 24.7309 11.1169 24.1395 11.1169 23.41ZM35.6439 31.8295H12.4378C11.7083 31.8295 11.1169 31.2381 11.1169 30.5086C11.1169 29.7791 11.7083 29.1877 12.4378 29.1877H35.6439C36.3734 29.1877 36.9648 29.7791 36.9648 30.5086C36.9648 31.2381 36.3734 31.8295 35.6439 31.8295ZM11.1169 16.3116C11.1169 15.5821 11.7083 14.9907 12.4378 14.9907H15.1384C15.8679 14.9907 16.4593 15.5821 16.4593 16.3116C16.4593 17.0411 15.8679 17.6325 15.1384 17.6325H12.4378C11.7083 17.6325 11.1169 17.0411 11.1169 16.3116Z" fill="#52DF8D"/>
</svg>
