<svg width="146" height="61" viewBox="0 0 146 61" fill="none" xmlns="http://www.w3.org/2000/svg">
<rect x="3" y="3.99999" width="140" height="54" rx="10" fill="url(#paint0_radial_8576_672)"/>
<rect x="1.5" y="2.49999" width="143" height="57" rx="11.5" stroke="black" stroke-opacity="0.2" stroke-width="3"/>
<g opacity="0.4" filter="url(#filter0_f_8576_672)">
<ellipse cx="14.3769" cy="17.0876" rx="5.81622" ry="10.8587" transform="rotate(-39.2803 14.3769 17.0876)" fill="white"/>
</g>
<g opacity="0.4" filter="url(#filter1_f_8576_672)">
<ellipse cx="5.81622" cy="11.5808" rx="5.81622" ry="11.5808" transform="matrix(-0.774058 -0.633114 -0.633114 0.774058 143.668 10.3647)" fill="white"/>
</g>
<rect x="8.5" y="9.5" width="129" height="43" rx="4.5" fill="url(#paint1_linear_8576_672)" stroke="url(#paint2_linear_8576_672)"/>
<path d="M33.0005 30.432C33.0005 29.632 33.1498 28.8853 33.4485 28.192C33.7578 27.488 34.1738 26.8747 34.6965 26.352C35.2192 25.8293 35.8272 25.4187 36.5205 25.12C37.2245 24.8107 37.9765 24.656 38.7765 24.656C39.3205 24.656 39.8378 24.7307 40.3285 24.88C40.8298 25.0187 41.2938 25.2213 41.7205 25.488C42.1578 25.744 42.5525 26.0533 42.9045 26.416C43.2672 26.7787 43.5712 27.1787 43.8165 27.616L42.5365 28.304C42.1632 27.6533 41.6458 27.1253 40.9845 26.72C40.3232 26.3147 39.5872 26.112 38.7765 26.112C38.1792 26.112 37.6192 26.224 37.0965 26.448C36.5738 26.672 36.1152 26.9813 35.7205 27.376C35.3258 27.7707 35.0165 28.2293 34.7925 28.752C34.5685 29.2747 34.4565 29.8347 34.4565 30.432C34.4565 31.0293 34.5685 31.5893 34.7925 32.112C35.0165 32.6347 35.3258 33.0933 35.7205 33.488C36.1152 33.872 36.5738 34.176 37.0965 34.4C37.6192 34.624 38.1792 34.736 38.7765 34.736C39.5872 34.736 40.3232 34.5333 40.9845 34.128C41.6458 33.7227 42.1632 33.184 42.5365 32.512L43.8325 33.216C43.5872 33.664 43.2832 34.0693 42.9205 34.432C42.5685 34.7947 42.1738 35.1093 41.7365 35.376C41.3098 35.6427 40.8458 35.8507 40.3445 36C39.8432 36.1387 39.3205 36.208 38.7765 36.208C37.9765 36.208 37.2245 36.0587 36.5205 35.76C35.8272 35.4507 35.2192 35.0347 34.6965 34.512C34.1738 33.9893 33.7578 33.3813 33.4485 32.688C33.1498 31.984 33.0005 31.232 33.0005 30.432ZM49.0961 36.192C48.5201 36.192 47.9761 36.0853 47.4641 35.872C46.9521 35.648 46.5041 35.3493 46.1201 34.976C45.7468 34.592 45.4481 34.144 45.2241 33.632C45.0108 33.12 44.9041 32.576 44.9041 32C44.9041 31.424 45.0108 30.8853 45.2241 30.384C45.4481 29.872 45.7468 29.4293 46.1201 29.056C46.5041 28.672 46.9521 28.3733 47.4641 28.16C47.9761 27.936 48.5201 27.824 49.0961 27.824C49.6721 27.824 50.2108 27.936 50.7121 28.16C51.2241 28.3733 51.6668 28.672 52.0401 29.056C52.4241 29.4293 52.7228 29.872 52.9361 30.384C53.1601 30.8853 53.2721 31.424 53.2721 32C53.2721 32.576 53.1601 33.12 52.9361 33.632C52.7228 34.144 52.4241 34.592 52.0401 34.976C51.6668 35.3493 51.2241 35.648 50.7121 35.872C50.2108 36.0853 49.6721 36.192 49.0961 36.192ZM49.0801 34.816C49.4641 34.816 49.8268 34.7413 50.1681 34.592C50.5095 34.4427 50.8081 34.24 51.0641 33.984C51.3201 33.728 51.5228 33.4293 51.6721 33.088C51.8215 32.7467 51.8961 32.384 51.8961 32C51.8961 31.616 51.8215 31.2533 51.6721 30.912C51.5228 30.5707 51.3201 30.272 51.0641 30.016C50.8081 29.76 50.5095 29.5627 50.1681 29.424C49.8268 29.2747 49.4641 29.2 49.0801 29.2C48.6961 29.2 48.3335 29.2747 47.9921 29.424C47.6508 29.5627 47.3521 29.76 47.0961 30.016C46.8401 30.272 46.6375 30.5707 46.4881 30.912C46.3388 31.2533 46.2641 31.616 46.2641 32C46.2641 32.384 46.3388 32.7467 46.4881 33.088C46.6375 33.4293 46.8401 33.728 47.0961 33.984C47.3521 34.24 47.6508 34.4427 47.9921 34.592C48.3335 34.7413 48.6961 34.816 49.0801 34.816ZM61.8538 36H60.4778V31.216C60.4778 30.7787 60.4084 30.4213 60.2698 30.144C60.1311 29.8667 59.9551 29.648 59.7418 29.488C59.5391 29.3173 59.3098 29.2 59.0538 29.136C58.7978 29.072 58.5578 29.04 58.3338 29.04C58.1098 29.04 57.8698 29.0773 57.6138 29.152C57.3684 29.2267 57.1444 29.36 56.9418 29.552C56.7391 29.744 56.5684 30 56.4298 30.32C56.3018 30.64 56.2378 31.0453 56.2378 31.536V36H54.8618V28H56.2378V28.944C56.5044 28.6347 56.8404 28.368 57.2458 28.144C57.6511 27.92 58.1044 27.808 58.6058 27.808C58.8938 27.808 59.2244 27.856 59.5978 27.952C59.9711 28.0373 60.3231 28.208 60.6538 28.464C60.9951 28.7093 61.2778 29.056 61.5018 29.504C61.7364 29.9413 61.8538 30.512 61.8538 31.216V36ZM68.0021 36C67.7888 36.0213 67.5861 36.0373 67.3941 36.048C67.2128 36.0693 67.0315 36.08 66.8501 36.08C66.4875 36.08 66.1675 36.0427 65.8901 35.968C65.6128 35.8933 65.3781 35.76 65.1861 35.568C65.0048 35.376 64.8661 35.12 64.7701 34.8C64.6741 34.48 64.6261 34.0747 64.6261 33.584V29.264H62.8661V28H64.6261V25.824L66.0021 25.328V28H67.9701V29.264H66.0021V33.504C66.0021 34.0053 66.0981 34.3467 66.2901 34.528C66.4928 34.6987 66.7915 34.784 67.1861 34.784C67.4315 34.784 67.7035 34.768 68.0021 34.736V36ZM76.0464 34.656C75.737 35.1147 75.3477 35.488 74.8784 35.776C74.409 36.064 73.8544 36.208 73.2144 36.208C72.617 36.208 72.0784 36.1013 71.5984 35.888C71.1184 35.664 70.7077 35.3653 70.3664 34.992C70.025 34.6187 69.7637 34.176 69.5824 33.664C69.401 33.152 69.3104 32.6027 69.3104 32.016C69.3104 31.4187 69.401 30.8693 69.5824 30.368C69.7637 29.856 70.025 29.4133 70.3664 29.04C70.7077 28.656 71.1184 28.3573 71.5984 28.144C72.0784 27.9307 72.617 27.824 73.2144 27.824C73.8544 27.824 74.409 27.968 74.8784 28.256C75.3477 28.544 75.737 28.9173 76.0464 29.376V28H77.4224V36H76.0464V34.656ZM73.2464 34.896C73.6517 34.896 74.0197 34.8213 74.3504 34.672C74.6917 34.5227 74.985 34.32 75.2304 34.064C75.4864 33.808 75.6837 33.504 75.8224 33.152C75.961 32.8 76.0304 32.416 76.0304 32C76.0304 31.5947 75.961 31.216 75.8224 30.864C75.6837 30.512 75.4864 30.208 75.2304 29.952C74.985 29.696 74.6917 29.4987 74.3504 29.36C74.0197 29.2107 73.6517 29.136 73.2464 29.136C72.8624 29.136 72.5104 29.2107 72.1904 29.36C71.8704 29.5093 71.593 29.7173 71.3584 29.984C71.1344 30.24 70.9584 30.544 70.8304 30.896C70.713 31.248 70.6544 31.6213 70.6544 32.016C70.6544 32.4107 70.713 32.784 70.8304 33.136C70.9584 33.488 71.1344 33.7973 71.3584 34.064C71.593 34.32 71.8704 34.5227 72.1904 34.672C72.5104 34.8213 72.8624 34.896 73.2464 34.896ZM86.535 34.448C86.151 34.9813 85.6657 35.408 85.079 35.728C84.4923 36.0373 83.847 36.192 83.143 36.192C82.567 36.192 82.023 36.0853 81.511 35.872C80.999 35.648 80.551 35.3493 80.167 34.976C79.7937 34.592 79.495 34.144 79.271 33.632C79.0577 33.12 78.951 32.576 78.951 32C78.951 31.424 79.0577 30.8853 79.271 30.384C79.495 29.872 79.7937 29.4293 80.167 29.056C80.551 28.672 80.999 28.3733 81.511 28.16C82.023 27.936 82.567 27.824 83.143 27.824C83.8363 27.824 84.4763 27.984 85.063 28.304C85.6497 28.6133 86.135 29.024 86.519 29.536L85.383 30.304C85.1057 29.9627 84.775 29.696 84.391 29.504C84.007 29.3013 83.591 29.2 83.143 29.2C82.759 29.2 82.3963 29.2747 82.055 29.424C81.7137 29.5627 81.415 29.76 81.159 30.016C80.903 30.272 80.7003 30.5707 80.551 30.912C80.4017 31.2533 80.327 31.616 80.327 32C80.327 32.384 80.4017 32.7467 80.551 33.088C80.7003 33.4293 80.903 33.728 81.159 33.984C81.415 34.24 81.7137 34.4427 82.055 34.592C82.3963 34.7413 82.759 34.816 83.143 34.816C83.6017 34.816 84.0177 34.7147 84.391 34.512C84.775 34.3093 85.1057 34.0373 85.383 33.696L86.535 34.448ZM92.5021 36C92.2888 36.0213 92.0861 36.0373 91.8941 36.048C91.7128 36.0693 91.5315 36.08 91.3501 36.08C90.9875 36.08 90.6675 36.0427 90.3901 35.968C90.1128 35.8933 89.8781 35.76 89.6861 35.568C89.5048 35.376 89.3661 35.12 89.2701 34.8C89.1741 34.48 89.1261 34.0747 89.1261 33.584V29.264H87.3661V28H89.1261V25.824L90.5021 25.328V28H92.4701V29.264H90.5021V33.504C90.5021 34.0053 90.5981 34.3467 90.7901 34.528C90.9928 34.6987 91.2915 34.784 91.6861 34.784C91.9315 34.784 92.2035 34.768 92.5021 34.736V36ZM98.5039 28H99.8799V32.784C99.8799 33.2107 99.9492 33.568 100.088 33.856C100.227 34.1333 100.397 34.3573 100.6 34.528C100.813 34.688 101.048 34.8 101.304 34.864C101.56 34.928 101.8 34.96 102.024 34.96C102.248 34.96 102.483 34.9227 102.728 34.848C102.973 34.7733 103.197 34.64 103.4 34.448C103.603 34.256 103.768 34 103.896 33.68C104.035 33.36 104.104 32.9547 104.104 32.464V28H105.496V36H104.104V35.056C103.848 35.3653 103.517 35.632 103.112 35.856C102.707 36.08 102.248 36.192 101.736 36.192C101.448 36.192 101.117 36.144 100.744 36.048C100.371 35.9627 100.019 35.7973 99.6879 35.552C99.3572 35.296 99.0745 34.9493 98.8399 34.512C98.6159 34.064 98.5039 33.488 98.5039 32.784V28ZM108.786 30.192C108.786 30.4587 108.903 30.6667 109.138 30.816C109.383 30.9547 109.682 31.072 110.034 31.168C110.397 31.2533 110.786 31.344 111.202 31.44C111.629 31.536 112.018 31.6747 112.37 31.856C112.733 32.0267 113.031 32.2613 113.266 32.56C113.511 32.848 113.634 33.248 113.634 33.76C113.634 34.144 113.549 34.4853 113.378 34.784C113.218 35.0827 112.994 35.3387 112.706 35.552C112.418 35.7547 112.077 35.9093 111.682 36.016C111.298 36.1333 110.882 36.192 110.434 36.192C109.602 36.192 108.903 36.032 108.338 35.712C107.773 35.3813 107.367 34.9333 107.122 34.368L108.258 33.776C108.439 34.224 108.717 34.5493 109.09 34.752C109.474 34.944 109.922 35.04 110.434 35.04C110.669 35.04 110.898 35.0133 111.122 34.96C111.346 34.9067 111.543 34.8267 111.714 34.72C111.885 34.6133 112.023 34.48 112.13 34.32C112.237 34.16 112.29 33.9787 112.29 33.776C112.29 33.4773 112.167 33.248 111.922 33.088C111.687 32.928 111.389 32.7947 111.026 32.688C110.663 32.5813 110.269 32.48 109.842 32.384C109.415 32.288 109.021 32.16 108.658 32C108.295 31.84 107.991 31.6213 107.746 31.344C107.511 31.0667 107.394 30.6933 107.394 30.224C107.394 29.8613 107.469 29.536 107.618 29.248C107.778 28.9493 107.991 28.6933 108.258 28.48C108.535 28.2667 108.855 28.1013 109.218 27.984C109.591 27.8667 109.991 27.808 110.418 27.808C111.09 27.808 111.682 27.952 112.194 28.24C112.717 28.528 113.117 28.928 113.394 29.44L112.258 30.016C112.109 29.6747 111.879 29.4133 111.57 29.232C111.261 29.04 110.877 28.944 110.418 28.944C109.906 28.944 109.506 29.0613 109.218 29.296C108.93 29.52 108.786 29.8187 108.786 30.192Z" fill="white"/>
<defs>
<filter id="filter0_f_8576_672" x="1.1582" y="2.90878" width="26.4375" height="28.3576" filterUnits="userSpaceOnUse" color-interpolation-filters="sRGB">
<feFlood flood-opacity="0" result="BackgroundImageFix"/>
<feBlend mode="normal" in="SourceGraphic" in2="BackgroundImageFix" result="shape"/>
<feGaussianBlur stdDeviation="2" result="effect1_foregroundBlur_8576_672"/>
</filter>
<filter id="filter1_f_8576_672" x="118.229" y="0.952938" width="27.21" height="29.3873" filterUnits="userSpaceOnUse" color-interpolation-filters="sRGB">
<feFlood flood-opacity="0" result="BackgroundImageFix"/>
<feBlend mode="normal" in="SourceGraphic" in2="BackgroundImageFix" result="shape"/>
<feGaussianBlur stdDeviation="2" result="effect1_foregroundBlur_8576_672"/>
</filter>
<radialGradient id="paint0_radial_8576_672" cx="0" cy="0" r="1" gradientTransform="matrix(70.4965 109 -76.4539 50.156 79.4539 31)" gradientUnits="userSpaceOnUse">
<stop stop-color="#294C32"/>
<stop offset="1" stop-color="#67DF89"/>
</radialGradient>
<linearGradient id="paint1_linear_8576_672" x1="73" y1="9" x2="73" y2="53" gradientUnits="userSpaceOnUse">
<stop stop-color="#294C32"/>
<stop offset="1" stop-color="#67DF89"/>
</linearGradient>
<linearGradient id="paint2_linear_8576_672" x1="8" y1="31" x2="138" y2="31" gradientUnits="userSpaceOnUse">
<stop stop-color="#52B7E0" stop-opacity="0.7"/>
<stop offset="1" stop-color="#446C96" stop-opacity="0.3"/>
</linearGradient>
</defs>
</svg>
