<svg width="20" height="15" viewBox="0 0 20 15" fill="none" xmlns="http://www.w3.org/2000/svg">
<path d="M8.48145 0.0124512C9.52355 0.0124512 10.3715 0.0107205 11.0381 0.100342C11.7234 0.192518 12.3144 0.392321 12.7861 0.864014C13.2578 1.33571 13.4576 1.92671 13.5498 2.61206C13.5694 2.75765 13.5839 2.91193 13.5957 3.07495H14.2471C15.1542 3.07495 15.7996 3.06274 16.3828 3.31616C16.966 3.56959 17.3976 4.04951 18.0166 4.71265L18.5166 5.2478H18.5156C18.8317 5.58635 19.0572 5.82301 19.2236 6.10034C19.3879 6.37439 19.5063 6.67416 19.5732 6.98706L19.6123 7.22827C19.64 7.47539 19.6377 7.74638 19.6377 8.09351V9.76343C19.6376 10.7206 19.0988 11.5507 18.3086 11.9705C18.1739 13.1893 17.1424 14.1375 15.8877 14.1375C14.7354 14.1375 13.7727 13.3371 13.5186 12.2625H7.19434C6.94015 13.3371 5.97754 14.1375 4.8252 14.1375C3.58192 14.1375 2.5578 13.2064 2.4082 12.0037C1.51013 11.577 0.887695 10.6645 0.887695 9.60425V8.87769C0.569882 8.83201 0.325195 8.56166 0.325195 8.2312C0.325197 7.9007 0.569815 7.62936 0.887695 7.58374V5.1687C0.887695 4.12659 0.885965 3.27866 0.975586 2.61206C1.06776 1.92671 1.26756 1.33571 1.73926 0.864014C2.21095 0.392321 2.80195 0.192518 3.4873 0.100342C4.1539 0.0107205 5.00184 0.0124512 6.04395 0.0124512H8.48145ZM4.8252 10.575C4.20388 10.575 3.7002 11.0786 3.7002 11.7C3.7002 12.3213 4.20388 12.825 4.8252 12.825C5.44652 12.825 5.9502 12.3213 5.9502 11.7C5.95019 11.0786 5.44651 10.575 4.8252 10.575ZM15.8877 10.575C15.2664 10.575 14.7627 11.0786 14.7627 11.7C14.7627 12.3213 15.2664 12.825 15.8877 12.825C16.509 12.825 17.0127 12.3213 17.0127 11.7C17.0127 11.0786 16.509 10.575 15.8877 10.575ZM6.04395 1.32495C4.96473 1.32495 4.22093 1.32599 3.66211 1.40112C3.12241 1.47372 2.8542 1.60454 2.66699 1.79175C2.47979 1.97895 2.34897 2.24717 2.27637 2.78687C2.20124 3.34568 2.2002 4.08949 2.2002 5.1687V7.58374C2.51808 7.62936 2.76269 7.9007 2.7627 8.2312C2.7627 8.56166 2.51801 8.83201 2.2002 8.87769V9.60425C2.2002 10.0019 2.3741 10.3579 2.64844 10.6042C3.04972 9.80862 3.87326 9.26245 4.8252 9.26245C5.90964 9.26245 6.82814 9.97082 7.14453 10.95H12.3252V5.1687C12.3252 4.08949 12.3242 3.34568 12.249 2.78687C12.1764 2.24717 12.0456 1.97895 11.8584 1.79175C11.6712 1.60454 11.403 1.47372 10.8633 1.40112C10.3045 1.32599 9.56066 1.32495 8.48145 1.32495H6.04395ZM13.6357 4.38745C13.6372 4.63463 13.6377 4.89496 13.6377 5.1687V10.7605C14.0055 9.88066 14.8744 9.26245 15.8877 9.26245C16.8143 9.26245 17.6199 9.77953 18.0322 10.5408C18.2137 10.3324 18.3251 10.0614 18.3252 9.76343V8.09351C18.3252 7.57568 18.3219 7.41132 18.29 7.26245V7.26147C18.2534 7.09023 18.1889 6.92569 18.0986 6.77515V6.77612C18.0202 6.64533 17.9101 6.52282 17.5566 6.14429V6.14331L17.0566 5.60815C16.361 4.86296 16.1349 4.63865 15.8604 4.51929C15.5857 4.39993 15.2671 4.38745 14.2471 4.38745H13.6357Z" fill="white"/>
</svg>
