<svg width="24" height="24" viewBox="0 0 24 24" fill="none" xmlns="http://www.w3.org/2000/svg">
<path fill-rule="evenodd" clip-rule="evenodd" d="M4.32278 12.2828C5.39884 11.8168 6.64107 11.8786 7.67302 12.4683L8 12.6551L8.32698 12.4683C9.47988 11.8095 10.8951 11.8095 12.048 12.4683L12.375 12.6551L12.702 12.4683C13.8549 11.8095 15.2701 11.8095 16.423 12.4683L16.75 12.6551L17.077 12.4683C18.1089 11.8786 19.3511 11.8168 20.4272 12.2828C19.8937 8.31195 16.4919 5.25 12.375 5.25C8.25807 5.25 4.85631 8.31195 4.32278 12.2828ZM3 13.375C3 8.19733 7.19733 4 12.375 4C17.5527 4 21.75 8.19733 21.75 13.375V14.452L20.1779 13.5536C19.4093 13.1144 18.4657 13.1144 17.6971 13.5536L16.75 14.0949L15.8029 13.5536C15.0343 13.1144 14.0907 13.1144 13.3221 13.5536L12.375 14.0949L11.4279 13.5536C10.6593 13.1144 9.71575 13.1144 8.94712 13.5536L8 14.0949L7.05285 13.5536C6.28427 13.1144 5.34073 13.1144 4.57215 13.5536L3 14.452V13.375Z" fill="white"/>
<path fill-rule="evenodd" clip-rule="evenodd" d="M11.75 19.0312V12.625H13V19.0312C13 19.9805 12.2305 20.75 11.2812 20.75C10.332 20.75 9.5625 19.9805 9.5625 19.0312V17.9375H10.8125V19.0312C10.8125 19.2901 11.0224 19.5 11.2812 19.5C11.5401 19.5 11.75 19.2901 11.75 19.0312Z" fill="white"/>
</svg>
