<svg width="60" height="60" viewBox="0 0 60 60" fill="none" xmlns="http://www.w3.org/2000/svg">
<rect x="57" y="57" width="54" height="54" rx="27" transform="rotate(-180 57 57)" fill="url(#paint0_radial_8592_1254)"/>
<rect x="58.5" y="58.5" width="57" height="57" rx="28.5" transform="rotate(-180 58.5 58.5)" stroke="black" stroke-opacity="0.2" stroke-width="3"/>
<g opacity="0.4" filter="url(#filter0_f_8592_1254)">
<ellipse cx="44.6578" cy="40.097" rx="5.81622" ry="9.33388" transform="rotate(140.72 44.6578 40.097)" fill="white"/>
</g>
<g opacity="0.4" filter="url(#filter1_f_8592_1254)">
<ellipse cx="5.81622" cy="11.6516" rx="5.81622" ry="11.6516" transform="matrix(0.774058 0.633114 0.633114 -0.774058 9.24268 47.1094)" fill="white"/>
</g>
<rect x="51.5" y="51.5" width="43" height="43" rx="21.5" transform="rotate(-180 51.5 51.5)" fill="url(#paint1_linear_8592_1254)" stroke="url(#paint2_linear_8592_1254)"/>
<path d="M28.7985 29.2451C28.408 29.6356 28.408 30.2688 28.7985 30.6593L34.8263 36.6871C35.4461 37.3069 35.4461 38.3118 34.8263 38.9315C34.2066 39.5513 33.2017 39.5513 32.5819 38.9315L25.0168 31.3664C24.2357 30.5853 24.2357 29.319 25.0168 28.538L32.5819 20.9728C33.2017 20.353 34.2066 20.353 34.8263 20.9728C35.4461 21.5926 35.4461 22.5975 34.8263 23.2173L28.7985 29.2451Z" fill="white"/>
<defs>
<filter id="filter0_f_8592_1254" x="32.2285" y="26.9858" width="24.8589" height="26.2222" filterUnits="userSpaceOnUse" color-interpolation-filters="sRGB">
<feFlood flood-opacity="0" result="BackgroundImageFix"/>
<feBlend mode="normal" in="SourceGraphic" in2="BackgroundImageFix" result="shape"/>
<feGaussianBlur stdDeviation="2" result="effect1_foregroundBlur_8592_1254"/>
</filter>
<filter id="filter1_f_8592_1254" x="7.47803" y="27.0283" width="27.2866" height="29.4888" filterUnits="userSpaceOnUse" color-interpolation-filters="sRGB">
<feFlood flood-opacity="0" result="BackgroundImageFix"/>
<feBlend mode="normal" in="SourceGraphic" in2="BackgroundImageFix" result="shape"/>
<feGaussianBlur stdDeviation="2" result="effect1_foregroundBlur_8592_1254"/>
</filter>
<radialGradient id="paint0_radial_8592_1254" cx="0" cy="0" r="1" gradientTransform="matrix(27.1915 109 -29.4894 50.156 86.4894 84)" gradientUnits="userSpaceOnUse">
<stop stop-color="#294C32"/>
<stop offset="1" stop-color="#67DF89"/>
</radialGradient>
<linearGradient id="paint1_linear_8592_1254" x1="74" y1="52" x2="74" y2="96" gradientUnits="userSpaceOnUse">
<stop stop-color="#294C32"/>
<stop offset="1" stop-color="#67DF89"/>
</linearGradient>
<linearGradient id="paint2_linear_8592_1254" x1="52" y1="74" x2="96" y2="74" gradientUnits="userSpaceOnUse">
<stop stop-color="#52B7E0" stop-opacity="0.7"/>
<stop offset="1" stop-color="#446C96" stop-opacity="0.3"/>
</linearGradient>
</defs>
</svg>
