<svg width="64" height="64" viewBox="0 0 64 64" fill="none" xmlns="http://www.w3.org/2000/svg">
<path d="M63.4899 25.9737L54.1542 13.6622C53.702 13.0562 53.0559 12.6735 52.2806 12.5778C51.5376 12.4502 50.7947 12.6735 50.1809 13.12L45.0124 16.9474C44.3986 17.394 44.011 18.0319 43.9141 18.7973C43.9141 18.9568 43.9141 19.0844 43.9141 19.2439L43.0096 19.8499C42.5573 20.1369 41.9759 20.2326 41.459 20.1369L32.4464 18.0956C31.0573 17.8724 29.636 18.3189 28.6346 19.2758L26.8579 20.9662L21.5601 20.5835C21.1402 20.5835 20.7525 20.3921 20.3972 20.1369L19.8804 19.7223C20.3649 18.5741 20.0742 17.2026 19.0405 16.4052L13.8719 12.5778C13.2582 12.1313 12.5152 11.908 11.7722 12.0356C11.0292 12.1313 10.3509 12.514 9.89862 13.12L0.562944 25.4315C-0.373853 26.6754 -0.115426 28.3977 1.14441 29.3227L6.31294 33.1501C6.79749 33.5009 7.37895 33.6923 7.99272 33.6923C8.12193 33.6923 8.25114 33.6923 8.41266 33.6923C9.15564 33.5966 9.83401 33.2139 10.2863 32.6079L10.7708 31.97L12.0629 32.8949C12.4829 33.2139 12.7736 33.6604 12.8705 34.2026L13.0966 35.4784C13.2582 36.3715 13.6781 37.2007 14.3242 37.8386C13.2905 39.0506 13.3228 40.8368 14.4534 41.985C14.841 42.3677 15.2933 42.5591 15.7455 42.7186C15.7455 42.8142 15.6809 42.878 15.6809 42.9737C15.6809 43.803 16.004 44.5685 16.5854 45.1426C17.1992 45.7486 17.9745 46.0356 18.782 46.0356C18.782 46.0356 18.8143 46.0356 18.8466 46.0356C18.9759 46.546 19.202 47.0563 19.5896 47.439C20.1711 48.0131 20.9464 48.3321 21.7863 48.3321C21.8832 48.3321 21.9478 48.3002 22.0447 48.3002C22.1739 48.7786 22.4 49.2251 22.7877 49.6079C23.3691 50.182 24.1444 50.5009 24.9843 50.5009C25.5657 50.5009 26.0826 50.3096 26.5672 49.9906L27.5039 50.9156C28.2146 51.6173 29.1514 52 30.1528 52C31.1542 52 32.091 51.6173 32.8017 50.9156C33.2862 50.4371 33.577 49.7992 33.7385 49.1294C34.0292 49.1932 34.2877 49.2889 34.5784 49.2889C35.5475 49.2889 36.4843 48.9381 37.2273 48.2045C37.6795 47.758 37.9379 47.2477 38.0994 46.7054C38.5194 46.833 38.9393 46.9606 39.3593 46.9606C40.3284 46.9606 41.2652 46.6097 42.0082 45.8762C42.4281 45.4615 42.6865 44.9831 42.8803 44.4409C43.3003 44.6004 43.7848 44.696 44.2371 44.696C45.2385 44.696 46.1753 44.3452 46.9183 43.6435C47.6289 42.9418 48.0489 41.985 48.0166 40.9962C48.0166 40.1351 47.6612 39.3377 47.1121 38.6998L49.8256 36.818C50.4716 36.3715 51.0208 35.7655 51.3438 35.0638L51.893 33.9474C52.0545 33.5966 52.3129 33.3095 52.636 33.0863L53.3466 32.576L53.7666 33.1501C54.3157 33.8837 55.1556 34.2664 56.0278 34.2664C56.6093 34.2664 57.223 34.075 57.7076 33.7242L62.8761 29.8968C64.136 28.9718 64.3621 27.2176 63.4253 26.0056L63.4899 25.9737ZM8.31575 31.1726C8.31575 31.1726 7.89581 31.364 7.76659 31.2683L2.59806 27.4409C2.40424 27.3133 2.37193 27.0581 2.50115 26.8668L11.8368 14.5553C11.8368 14.5553 12.0306 14.3958 12.0952 14.3958C12.0952 14.3958 12.1275 14.3958 12.1599 14.3958C12.2245 14.3958 12.3214 14.3958 12.4183 14.4915L17.5868 18.3189C17.7806 18.4465 17.8129 18.7017 17.6837 18.893L8.34805 31.2045L8.31575 31.1726ZM18.5882 38.8274L17.1023 40.2945C16.8438 40.5497 16.3916 40.5497 16.1332 40.2945C15.8747 40.0394 15.8747 39.5929 16.1332 39.3377L17.6191 37.8705C17.8775 37.6154 18.3298 37.6154 18.5882 37.8705C18.7174 37.9981 18.782 38.1576 18.782 38.349C18.782 38.5403 18.7174 38.6998 18.5882 38.8274ZM18.1037 42.9737C18.1037 42.7824 18.1683 42.6229 18.2975 42.4953L18.8143 41.985L20.3003 40.5178L20.8172 40.0075C20.8172 40.0075 21.1079 39.8161 21.3017 39.8161C21.4955 39.8161 21.657 39.8799 21.7863 40.0075C21.9155 40.1351 21.9801 40.2945 21.9801 40.4859C21.9801 40.6773 21.9155 40.8368 21.7863 40.9643L21.4309 41.3152L19.5896 43.1332L19.2343 43.484C18.9759 43.7392 18.5236 43.7392 18.2652 43.484C18.136 43.3565 18.0714 43.197 18.0714 43.0056L18.1037 42.9737ZM21.334 45.7486C21.2048 45.621 21.1402 45.4615 21.1402 45.2702C21.1402 45.0788 21.2048 44.9193 21.334 44.7917L23.1753 42.9737C23.1753 42.9737 23.4983 42.7824 23.6598 42.7824C23.8214 42.7824 24.0152 42.8461 24.1444 42.9737C24.2736 43.1013 24.3382 43.2608 24.3382 43.4521C24.3382 43.6435 24.2736 43.803 24.1444 43.9306L22.3031 45.7486C22.0447 46.0037 21.5924 46.0037 21.334 45.7486ZM24.4997 47.8855C24.2413 47.6304 24.2413 47.1839 24.4997 46.9287L25.3396 46.0994C25.3396 46.0994 25.6627 45.9081 25.8242 45.9081C25.9857 45.9081 26.1795 45.9719 26.3087 46.0994C26.4379 46.227 26.5025 46.3865 26.5025 46.5779C26.5025 46.7692 26.4379 46.9287 26.3087 47.0563L25.4688 47.8855C25.2104 48.1407 24.7582 48.1407 24.4997 47.8855ZM45.2062 41.9212C44.5924 42.4634 44.011 42.6229 43.3003 41.9212L42.0082 40.6454C42.0082 40.6454 42.0082 40.6454 42.0082 40.6135L39.3593 37.9981L36.8073 35.4784C36.3228 35 35.5798 35 35.0952 35.4784C34.8691 35.7017 34.7399 36.0206 34.7399 36.3396C34.7399 36.6585 34.8368 36.9456 35.0952 37.2007L37.7441 39.8161L40.2961 42.3677C40.7806 42.878 40.7806 43.6754 40.2961 44.1538C39.8115 44.6323 38.9393 44.6323 38.4225 44.1538L37.2273 42.9737L33.2539 39.0506C32.7694 38.5722 32.0264 38.5722 31.5419 39.0506C31.3157 39.2739 31.1865 39.5929 31.1865 39.9118C31.1865 40.2308 31.3157 40.5178 31.5419 40.773L33.5124 42.6867L35.5475 44.696C36.0643 45.2064 36.0643 46.0356 35.5475 46.546C35.0306 47.0563 34.1907 47.0563 33.6739 46.546L32.834 45.7167L29.7006 42.6229C29.216 42.1445 28.473 42.1445 27.9885 42.6229C27.5039 43.1013 27.5039 43.8349 27.9885 44.3133L31.1219 47.4071C31.3804 47.6623 31.5096 47.9812 31.5096 48.3321C31.5096 48.6829 31.3804 49.0019 31.1219 49.257C30.6374 49.7355 29.7652 49.7355 29.2483 49.257L28.3438 48.364C28.6992 47.8536 28.9576 47.2795 28.9576 46.6416C28.9576 45.8124 28.6346 45.0469 28.0531 44.4728C27.6655 44.09 27.2132 43.8987 26.7287 43.7392C26.7287 43.6435 26.7933 43.5797 26.7933 43.484C26.7933 42.6548 26.4702 41.8893 25.8888 41.3152C25.4688 40.9005 24.9843 40.7092 24.4674 40.5816C24.4674 40.5816 24.4674 40.5497 24.4674 40.5178C24.4674 39.6885 24.1444 38.9231 23.5629 38.349C22.9169 37.7111 22.0124 37.4559 21.1079 37.5197C20.9787 37.0413 20.7525 36.5628 20.3649 36.212C19.202 35.0638 17.2315 35.0638 16.0363 36.1482C15.7778 35.8611 15.584 35.5103 15.5194 35.0957L15.2933 33.8199C15.0995 32.6716 14.4857 31.6829 13.5166 30.9812L12.2245 30.0563L18.5559 21.6998L18.9436 21.9868C19.6542 22.529 20.4941 22.848 21.3986 22.9118L24.5643 23.135L24.0152 23.6773C23.466 24.1876 23.0138 25.1444 22.9169 25.9099C22.6261 28.6848 22.077 30.7898 21.657 32.0656C21.4309 32.7354 21.5924 33.469 22.0447 34.0112C22.5292 34.5853 23.2399 34.8724 23.9829 34.7767C29.3775 34.2026 31.348 30.5985 31.7357 28.4296L32.4141 27.7598L38.7132 33.6604L45.2062 40.0713C45.4646 40.2945 45.5938 40.6135 45.5938 40.9643C45.5938 41.3152 45.4646 41.666 45.2385 41.8893L45.2062 41.9212ZM51.2469 31.1088C50.6009 31.5553 50.084 32.1613 49.7287 32.863L49.1795 33.9793C49.018 34.3302 48.7596 34.6172 48.4365 34.8405L45.4323 36.9137L40.393 31.97L33.2216 25.2401C32.7371 24.7936 31.9941 24.7936 31.5419 25.2401L29.7329 27.0262C29.5391 27.2176 29.4098 27.5047 29.3775 27.7598C29.3775 27.9193 28.9576 31.651 24.0798 32.3527C24.4997 30.9493 25.0166 28.8124 25.3073 26.1332C25.3073 25.9099 25.5334 25.4953 25.6627 25.3677L30.3466 20.9024C30.7989 20.4559 31.445 20.2645 32.0264 20.3602L40.9744 22.3696C42.1374 22.6566 43.3972 22.4015 44.3986 21.7636L44.9478 21.4127L51.9576 30.6304L51.3115 31.0769L51.2469 31.1088ZM61.4871 27.9512L56.3185 31.7786C56.1247 31.9062 55.8986 31.8743 55.7371 31.7148L46.4014 19.4033C46.4014 19.4033 46.3045 19.1801 46.3368 19.1163C46.3368 19.0525 46.3691 18.9568 46.4983 18.8611L51.6669 15.0337C51.6669 15.0337 51.8284 14.938 51.893 14.938C51.893 14.938 51.9253 14.938 51.9576 14.938C52.0222 14.938 52.1514 14.9699 52.216 15.0975L61.5517 27.409C61.6809 27.6003 61.6486 27.8236 61.4548 27.9831L61.4871 27.9512Z" fill="#52DF8D"/>
</svg>
