<svg width="64" height="64" viewBox="0 0 64 64" fill="none" xmlns="http://www.w3.org/2000/svg">
<path fill-rule="evenodd" clip-rule="evenodd" d="M40.9175 39.7813C40.8951 39.9667 40.8591 40.1525 40.8089 40.3377L40.8077 40.3373C40.7984 40.3715 40.7801 40.4303 40.7534 40.5135C40.5444 41.1627 40.182 41.7266 39.7154 42.1828C41.1425 42.3658 42.7799 42.1791 44.9422 41.1702L53.2186 36.7521C53.1842 36.6031 53.1212 36.4555 53.028 36.3151C52.8106 35.9881 52.4724 35.787 52.0854 35.7011C51.5946 35.5921 51.026 35.6576 50.4874 35.8775L50.4857 35.8735L40.9176 39.7812L40.9175 39.7813ZM14.5374 38.4757L22.5427 34.4455C22.9006 34.2653 23.2639 34.1586 23.6302 34.1236C24.0006 34.0882 24.3914 34.1267 24.7995 34.2376L37.1245 37.5827C37.2046 37.6045 37.2174 37.6066 37.2285 37.6101C37.7316 37.7721 38.124 38.092 38.3552 38.4855C38.5711 38.8528 38.6444 39.2903 38.528 39.7191V39.7237L38.5094 39.7932C38.359 40.2602 38.0005 40.6332 37.544 40.8611C37.0691 41.0981 36.4995 41.1761 35.9434 41.0451C35.9094 41.0343 35.8751 41.0252 35.8407 41.0177L29.5609 39.3691C28.931 39.2033 28.2861 39.5796 28.1204 40.2093C27.9546 40.8392 28.3309 41.4841 28.9606 41.6498L35.2254 43.2945C35.5276 43.4058 35.6387 43.4476 35.7507 43.4897C38.5389 44.5385 41.1825 45.5328 45.9652 43.2912L46.0206 43.2635L54.8744 38.5371C54.9252 38.5143 54.9744 38.4881 55.0215 38.4586L57.0466 37.3775C57.4682 37.1525 57.9566 37.1073 58.4039 37.216C58.8325 37.3201 59.2129 37.5651 59.4411 37.9255L59.4674 37.9665C59.6504 38.2778 59.6812 38.6257 59.5866 38.9467C59.482 39.3018 59.2289 39.6322 58.8575 39.8673L58.7982 39.9047L40.5437 50.6322C40.1584 50.8586 39.7489 50.9977 39.326 51.0481C38.9012 51.0987 38.4619 51.0591 38.0185 50.9282L32.773 49.3788C32.6375 49.3388 32.5682 49.3168 32.2524 49.2221C29.7164 48.4616 28.1417 47.9895 25.5792 49.4493L22.2992 51.318L14.5374 38.4753V38.4757ZM14.2265 61.1615L2.17162 41.216C1.83499 40.6576 2.01487 39.932 2.57324 39.5953L10.8227 34.6095C11.3811 34.2728 12.1067 34.4527 12.4434 35.0111L13.314 36.4515L21.4809 32.34C22.101 32.0277 22.7451 31.8413 23.4086 31.778C24.0766 31.7142 24.7479 31.7746 25.4182 31.9566L37.7432 35.3017C37.7676 35.3083 37.8359 35.3297 37.9489 35.3661C39.0214 35.7113 39.8711 36.4167 40.3869 37.2941C40.4125 37.3377 40.4372 37.3817 40.4612 37.4261L49.6007 33.6933V33.6887C50.5656 33.2947 51.6297 33.1876 52.5931 33.4015C53.5567 33.6155 54.4156 34.1418 54.9947 35.0128C55.1265 35.2108 55.2364 35.4165 55.3252 35.6272L55.9385 35.2998C56.8891 34.7925 57.9747 34.687 58.9579 34.926C59.9595 35.1693 60.866 35.7702 61.4356 36.6697C61.4465 36.687 61.4672 36.7216 61.4989 36.7753C62.0306 37.6802 62.1216 38.6863 61.849 39.6117C61.5865 40.5027 60.9832 41.3113 60.1134 41.8621C60.0909 41.8763 60.0501 41.9008 59.9895 41.9365L41.735 52.664C41.0579 53.0618 40.341 53.3058 39.6031 53.3937C38.8671 53.4815 38.1111 53.4145 37.3537 53.1907L31.5784 51.4846C29.6344 50.9017 28.4274 50.5397 26.7429 51.4995L23.519 53.3361L24.4984 54.9563C24.835 55.5147 24.6551 56.2403 24.0967 56.577L15.8472 61.5628C15.2889 61.8995 14.5632 61.7196 14.2266 61.1612L14.2265 61.1615ZM4.80387 41.0062L15.6374 58.9308L21.866 55.1663L11.0326 37.2417L4.80387 41.0062ZM42.8176 4.63133H39.9256L39.2716 6.67108L39.2706 6.67071C39.1526 7.03696 38.8579 7.33808 38.459 7.44671C38.0146 7.56796 37.5757 7.71883 37.1449 7.89746C36.7317 8.06871 36.318 8.27296 35.9061 8.50846L35.9052 8.50696C35.5701 8.69821 35.148 8.72146 34.7795 8.53158L32.8751 7.55196L30.8314 9.59558L31.7805 11.4406C31.9882 11.7938 32.006 12.2455 31.788 12.6266C31.5525 13.0386 31.348 13.4526 31.1767 13.8658C31.0047 14.2808 30.8585 14.7032 30.7396 15.1308C30.6502 15.5235 30.3617 15.8601 29.9505 15.9921L27.9107 16.6461V19.5381L29.9505 20.1921L29.9501 20.1931C30.3164 20.3111 30.6175 20.6058 30.7261 21.0047C30.8474 21.4491 30.9982 21.888 31.1767 22.3188C31.3479 22.732 31.5524 23.1457 31.7879 23.5577L31.7864 23.5586C31.9776 23.8937 32.0009 24.3158 31.811 24.6843L30.8312 26.5887L32.875 28.6325L34.72 27.6833C35.0732 27.4756 35.5247 27.4578 35.906 27.6758C36.318 27.9113 36.732 28.1158 37.1454 28.2871C37.5604 28.459 37.9827 28.6053 38.4104 28.7242C38.803 28.8136 39.1396 29.1021 39.2716 29.5133L39.9256 31.5531H42.8176L43.4716 29.5133L43.4726 29.5137C43.5906 29.1475 43.8854 28.8463 44.2842 28.7377C44.7286 28.6165 45.1674 28.4656 45.5984 28.2871C46.0115 28.1158 46.4254 27.9115 46.8372 27.676L46.8381 27.6775C47.1732 27.4862 47.5954 27.463 47.9639 27.6528L49.8682 28.6325L51.9119 26.5888L50.9627 24.7438C50.755 24.3906 50.7372 23.9391 50.9552 23.5578C51.1907 23.1458 51.3952 22.7318 51.5665 22.3186C51.7385 21.9035 51.8847 21.4811 52.0036 21.0536C52.0931 20.661 52.3815 20.3243 52.7927 20.1923L54.8325 19.5383V16.6463L52.7927 15.9923L52.7931 15.9913C52.4269 15.8733 52.1257 15.5786 52.0171 15.1797C51.8959 14.7353 51.7449 14.2965 51.5664 13.8656C51.3952 13.4525 51.1907 13.0386 50.9552 12.6267L50.9567 12.6258C50.7655 12.2907 50.7422 11.8686 50.9321 11.5001L51.9117 9.59571L49.8681 7.55208L48.0231 8.50121C47.6699 8.70896 47.2184 8.72671 46.8371 8.50871C46.4429 8.28333 46.0469 8.08646 45.6514 7.91983C45.6319 7.91283 45.6124 7.90546 45.5931 7.89746C45.1726 7.72321 44.7517 7.57683 44.3326 7.46033C43.9401 7.37083 43.6035 7.08233 43.4715 6.67133L42.8175 4.63158L42.8176 4.63133ZM39.0672 2.26733V2.27083C38.5689 2.27071 38.1057 2.58921 37.9452 3.08921L37.2167 5.36146C36.8862 5.46883 36.5636 5.58796 36.2492 5.71833C35.9234 5.85333 35.6087 5.99758 35.3061 6.15071L33.2602 5.09821C32.8055 4.82183 32.2045 4.88008 31.8114 5.27308L28.5524 8.53196L28.5541 8.53371C28.2011 8.88658 28.099 9.44033 28.34 9.90783L29.43 12.0266C29.2769 12.3295 29.1325 12.6442 28.9975 12.9702C28.8674 13.2845 28.7482 13.607 28.6409 13.9373L26.4606 14.6363C25.937 14.7578 25.5469 15.2272 25.5469 15.7877V20.3966H25.5504C25.5504 20.895 25.8687 21.3581 26.3687 21.5186L28.641 22.2471C28.7484 22.5776 28.8675 22.9002 28.9977 23.2146C29.1327 23.5405 29.2771 23.8551 29.4301 24.1578L28.3776 26.2037C28.1012 26.6585 28.1595 27.2595 28.5525 27.6526L31.8115 30.9116L31.8132 30.9098C32.1661 31.2628 32.7199 31.365 33.1874 31.124L35.3062 30.034C35.6091 30.1871 35.9239 30.3315 36.2499 30.4666C36.564 30.5967 36.8866 30.7158 37.2169 30.8232L37.9159 33.0035C38.0374 33.5271 38.5067 33.9172 39.0672 33.9172H43.6761V33.9137C44.1745 33.9138 44.6376 33.5953 44.7981 33.0953L45.5266 30.8231C45.8571 30.7157 46.1797 30.5966 46.4941 30.4663C46.82 30.3313 47.1346 30.187 47.4374 30.034L49.4832 31.0865C49.938 31.3628 50.539 31.3046 50.9321 30.9116L54.191 27.6527L54.1892 27.651C54.5422 27.2981 54.6444 26.7443 54.4034 26.2768L53.3134 24.158C53.4665 23.8551 53.6109 23.5405 53.7459 23.2143C53.8761 22.9001 53.9951 22.5776 54.1025 22.2472L56.2827 21.5482C56.8064 21.4267 57.1965 20.9573 57.1965 20.3968V15.788H57.193C57.193 15.2896 56.8746 14.8266 56.3746 14.666L54.1024 13.9375C53.9949 13.607 53.8759 13.2843 53.7456 12.97C53.6106 12.6441 53.4662 12.3295 53.3132 12.0267L54.3657 9.98083C54.6421 9.52608 54.5839 8.92508 54.1909 8.53196L50.932 5.27308L50.9302 5.27483C50.5774 4.92183 50.0236 4.81971 49.5561 5.06071L47.4372 6.15071C47.1546 6.00783 46.8617 5.87258 46.5589 5.74533C46.539 5.73571 46.5189 5.72658 46.4982 5.71808C46.1855 5.58846 45.8612 5.46921 45.5264 5.36083L44.8276 3.18121C44.7061 2.65758 44.2367 2.26746 43.6762 2.26746H39.0674L39.0672 2.26733ZM44.7784 14.6855C45.6501 15.5572 46.1894 16.7617 46.1894 18.0922C46.1894 19.4227 45.6501 20.6272 44.7784 21.499C43.9066 22.3707 42.7021 22.91 41.3716 22.91C40.0411 22.91 38.8366 22.3707 37.9649 21.499C37.0931 20.6272 36.5539 19.4227 36.5539 18.0922C36.5539 16.7617 37.0931 15.5572 37.9649 14.6855C38.8366 13.8137 40.0411 13.2745 41.3716 13.2745C42.7021 13.2745 43.9066 13.8137 44.7784 14.6855ZM41.3716 10.9105C43.3546 10.9105 45.15 11.7143 46.4497 13.0141C47.7494 14.3138 48.5534 16.1092 48.5534 18.0922C48.5534 20.0752 47.7495 21.8707 46.4497 23.1703C45.15 24.4701 43.3546 25.274 41.3716 25.274C39.3886 25.274 37.5932 24.4701 36.2935 23.1703C34.9939 21.8707 34.1899 20.0752 34.1899 18.0922C34.1899 16.1092 34.9937 14.3138 36.2935 13.0141C37.5932 11.7145 39.3886 10.9105 41.3716 10.9105Z" fill="#52DF8D"/>
</svg>
