<svg width="17" height="18" viewBox="0 0 17 18" fill="none" xmlns="http://www.w3.org/2000/svg">
<path d="M15.3933 7.20354V7.06754C15.3982 5.7067 14.9664 4.38017 14.1614 3.28291C13.3565 2.18565 12.2208 1.37551 10.9213 0.971541H10.8733C10.2021 0.766928 9.50284 0.669727 8.80131 0.683541C7.13078 0.775215 5.55819 1.50094 4.40451 2.7126C3.25083 3.92426 2.60303 5.53052 2.59331 7.20354C2.12452 7.36845 1.71848 7.67482 1.43125 8.08036C1.14401 8.48589 0.989746 8.97059 0.989746 9.46754C0.989746 9.96449 1.14401 10.4492 1.43125 10.8547C1.71848 11.2603 2.12452 11.5666 2.59331 11.7315C2.75809 13.3114 3.50445 14.7735 4.68729 15.8336C5.87014 16.8937 7.40494 17.4761 8.99331 17.4675H9.17731C10.7133 17.3932 12.1732 16.777 13.298 15.7284C14.4228 14.6798 15.1396 13.2665 15.3213 11.7395C15.7956 11.584 16.2096 11.2843 16.5057 10.8824C16.8017 10.4805 16.965 9.9963 16.973 9.49719C16.9809 8.99807 16.833 8.50891 16.5499 8.0978C16.2667 7.6867 15.8624 7.3741 15.3933 7.20354ZM9.13731 15.8675C7.97923 15.901 6.84811 15.5145 5.95268 14.7794C5.05724 14.0442 4.45792 13.01 4.26531 11.8675H13.6813C13.4861 12.9491 12.9309 13.9328 12.106 14.6589C11.2811 15.3851 10.2349 15.811 9.13731 15.8675ZM14.5933 10.2675H3.39331C3.18114 10.2675 2.97766 10.1833 2.82763 10.0332C2.6776 9.8832 2.59331 9.67971 2.59331 9.46754C2.59331 9.25537 2.6776 9.05188 2.82763 8.90185C2.97766 8.75183 3.18114 8.66754 3.39331 8.66754H4.99331C5.20549 8.66754 5.40897 8.58325 5.559 8.43323C5.70903 8.2832 5.79331 8.07971 5.79331 7.86754C5.79331 7.65537 5.70903 7.45188 5.559 7.30186C5.40897 7.15183 5.20549 7.06754 4.99331 7.06754H4.19331C4.22912 6.23763 4.46633 5.42889 4.88445 4.71111C5.30257 3.99334 5.88906 3.38807 6.59331 2.94754V5.46754C6.59331 5.67971 6.6776 5.8832 6.82763 6.03323C6.97766 6.18326 7.18114 6.26754 7.39331 6.26754C7.60549 6.26754 7.80897 6.18326 7.959 6.03323C8.10903 5.8832 8.19331 5.67971 8.19331 5.46754V2.33954C8.41046 2.30326 8.62947 2.27922 8.84931 2.26754H8.99331C9.26142 2.27132 9.52885 2.29538 9.79331 2.33954V5.46754C9.79331 5.67971 9.8776 5.8832 10.0276 6.03323C10.1777 6.18326 10.3811 6.26754 10.5933 6.26754C10.8055 6.26754 11.009 6.18326 11.159 6.03323C11.309 5.8832 11.3933 5.67971 11.3933 5.46754V2.92354C11.7327 3.12004 12.0493 3.35346 12.3373 3.61954C12.7986 4.06746 13.1651 4.60348 13.4152 5.19578C13.6653 5.78808 13.7939 6.4246 13.7933 7.06754H12.9933C12.7811 7.06754 12.5777 7.15183 12.4276 7.30186C12.2776 7.45188 12.1933 7.65537 12.1933 7.86754C12.1933 8.07971 12.2776 8.2832 12.4276 8.43323C12.5777 8.58325 12.7811 8.66754 12.9933 8.66754H14.5933C14.8055 8.66754 15.009 8.75183 15.159 8.90185C15.309 9.05188 15.3933 9.25537 15.3933 9.46754C15.3933 9.67971 15.309 9.8832 15.159 10.0332C15.009 10.1833 14.8055 10.2675 14.5933 10.2675Z" fill="white"/>
</svg>
