<svg width="64" height="64" viewBox="0 0 64 64" fill="none" xmlns="http://www.w3.org/2000/svg">
<path d="M56.9004 12.2201L53.5004 10.5001L51.7804 7.10006C51.6061 6.71562 51.3147 6.39617 50.9478 6.18744C50.581 5.97871 50.1575 5.8914 49.738 5.93802C49.3185 5.98463 48.9244 6.16277 48.6123 6.44694C48.3002 6.73111 48.086 7.10674 48.0004 7.52006L46.2004 14.9801L45.4804 15.7001C40.753 11.7003 34.6626 9.68256 28.4822 10.0686C22.3019 10.4547 16.5099 13.2147 12.317 17.7717C8.12416 22.3286 5.85495 28.3299 5.98371 34.521C6.11247 40.7121 8.62925 46.6138 13.008 50.9925C17.3867 55.3712 23.2884 57.888 29.4795 58.0168C35.6706 58.1455 41.6718 55.8763 46.2288 51.6834C50.7858 47.4906 53.5458 41.6986 53.9318 35.5182C54.3179 29.3378 52.3002 23.2474 48.3004 18.5201L49.0204 17.8001L56.4804 16.0001C56.8747 15.9004 57.2293 15.6829 57.4968 15.3765C57.7643 15.0702 57.9321 14.6896 57.9777 14.2854C58.0234 13.8812 57.9447 13.4728 57.7522 13.1145C57.5597 12.7562 57.2626 12.4651 56.9004 12.2801V12.2201ZM50.0004 34.0001C50.0048 38.5411 48.4637 42.9485 45.6306 46.4973C42.7974 50.0462 38.8409 52.5253 34.4117 53.5269C29.9825 54.5285 25.3443 53.993 21.2598 52.0084C17.1754 50.0238 13.8879 46.7083 11.938 42.6072C9.98815 38.5061 9.49196 33.8635 10.5311 29.443C11.5702 25.0224 14.0827 21.087 17.6554 18.2841C21.2282 15.4811 25.6485 13.9774 30.1893 14.0203C34.7302 14.0632 39.1212 15.6501 42.6404 18.5201L36.9404 24.2201C34.4873 22.4789 31.4698 21.7226 28.4855 22.101C25.5013 22.4793 22.7679 23.9647 20.827 26.2629C18.886 28.5611 17.879 31.5044 18.0054 34.5099C18.1318 37.5155 19.3824 40.3639 21.5095 42.491C23.6366 44.6181 26.485 45.8687 29.4905 45.9951C32.496 46.1215 35.4394 45.1145 37.7376 43.1735C40.0358 41.2325 41.5212 38.4992 41.8995 35.5149C42.2778 32.5307 41.5215 29.5131 39.7804 27.0601L45.4804 21.3601C48.407 24.9219 50.0049 29.3901 50.0004 34.0001ZM38.0004 34.0001C38.0283 35.7908 37.462 37.5402 36.39 38.9749C35.318 40.4095 33.8007 41.4484 32.0755 41.9291C30.3503 42.4098 28.5144 42.3052 26.855 41.6316C25.1956 40.9581 23.8062 39.7535 22.904 38.2064C22.0019 36.6593 21.638 34.8568 21.8691 33.0809C22.1003 31.3049 22.9135 29.6557 24.1816 28.391C25.4497 27.1264 27.1011 26.3176 28.8777 26.0913C30.6542 25.8649 32.4557 26.2338 34.0004 27.1401L28.5404 32.5801C28.353 32.766 28.2042 32.9872 28.1026 33.2309C28.0011 33.4746 27.9488 33.736 27.9488 34.0001C27.9488 34.2641 28.0011 34.5255 28.1026 34.7692C28.2042 35.0129 28.353 35.2341 28.5404 35.4201C28.7263 35.6075 28.9475 35.7563 29.1913 35.8578C29.435 35.9594 29.6964 36.0117 29.9604 36.0117C30.2244 36.0117 30.4858 35.9594 30.7296 35.8578C30.9733 35.7563 31.1945 35.6075 31.3804 35.4201L36.8604 30.0001C37.5864 31.2096 37.9797 32.5895 38.0004 34.0001Z" fill="#52DF8D"/>
</svg>
